HIERARCHY
ROOT root
{
	OFFSET 0.000000 0.000000 0.000000
	CHANNELS 6 Xposition Yposition Zposition Zrotation Yrotation Xrotation
	JOINT lhip
	{
		OFFSET 0.058581 -0.082280 -0.017664
		CHANNELS 3 Zrotation Yrotation Xrotation
		JOINT lknee
		{
			OFFSET 0.043451 -0.386469 0.008037
			CHANNELS 3 Zrotation Yrotation Xrotation
			JOINT lankle
			{
				OFFSET -0.014790 -0.426874 -0.037428
				CHANNELS 3 Zrotation Yrotation Xrotation
				JOINT ltoe
				{
					OFFSET 0.041054 -0.060286 0.122042
					CHANNELS 3 Zrotation Yrotation Xrotation
					End Site
					{
						OFFSET 0.000000 0.000000 0.000000
					}
				}
			}
		}
	}
	JOINT rhip
	{
		OFFSET -0.060310 -0.090513 -0.013543
		CHANNELS 3 Zrotation Yrotation Xrotation
		JOINT rknee
		{
			OFFSET -0.043257 -0.383688 -0.004843
			CHANNELS 3 Zrotation Yrotation Xrotation
			JOINT rankle
			{
				OFFSET 0.019056 -0.420046 -0.034562
				CHANNELS 3 Zrotation Yrotation Xrotation
				JOINT rtoe
				{
					OFFSET -0.034840 -0.062106 0.130323
					CHANNELS 3 Zrotation Yrotation Xrotation
					End Site
					{
						OFFSET 0.000000 0.000000 0.000000
					}
				}
			}
		}
	}
	JOINT lowerback
	{
		OFFSET 0.004439 0.124404 -0.038385
		CHANNELS 3 Zrotation Yrotation Xrotation
		JOINT upperback
		{
			OFFSET 0.004488 0.137956 0.026820
			CHANNELS 3 Zrotation Yrotation Xrotation
			JOINT chest
			{
				OFFSET -0.002265 0.056032 0.002855
				CHANNELS 3 Zrotation Yrotation Xrotation
				JOINT lowerneck
				{
					OFFSET -0.013390 0.211636 -0.033468
					CHANNELS 3 Zrotation Yrotation Xrotation
					JOINT upperneck
					{
						OFFSET 0.010113 0.088937 0.050410
						CHANNELS 3 Zrotation Yrotation Xrotation
						End Site
						{
							OFFSET 0.000000 0.000000 0.000000
						}
					}
				}
				JOINT lclavicle
				{
					OFFSET 0.071702 0.114000 -0.018898
					CHANNELS 3 Zrotation Yrotation Xrotation
					JOINT lshoulder
					{
						OFFSET 0.122921 0.045205 -0.019046
						CHANNELS 3 Zrotation Yrotation Xrotation
						JOINT lelbow
						{
							OFFSET 0.255332 -0.015649 -0.022946
							CHANNELS 3 Zrotation Yrotation Xrotation
							JOINT lwrist
							{
								OFFSET 0.265709 0.012698 -0.007375
								CHANNELS 3 Zrotation Yrotation Xrotation
								End Site
								{
									OFFSET 0.000000 0.000000 0.000000
								}
							}
						}
					}
				}
				JOINT rclavicle
				{
					OFFSET -0.082954 0.112472 -0.023707
					CHANNELS 3 Zrotation Yrotation Xrotation
					JOINT rshoulder
					{
						OFFSET -0.113228 0.046853 -0.008472
						CHANNELS 3 Zrotation Yrotation Xrotation
						JOINT relbow
						{
							OFFSET -0.260127 -0.014369 -0.031269
							CHANNELS 3 Zrotation Yrotation Xrotation
							JOINT rwrist
							{
								OFFSET -0.269108 0.006794 -0.006027
								CHANNELS 3 Zrotation Yrotation Xrotation
								End Site
								{
									OFFSET 0.000000 0.000000 0.000000
								}
							}
						}
					}
				}
			}
		}
	}
}
MOTION
Frames: 11
Frame Time: 0.033333
0.352950 0.629869 0.993562 -95.542077 2.694581 90.020942 -1.471349 -2.102572 -0.879409 -3.442004 -4.266105 6.560272 4.927880 8.154297 -11.485882 0.000000 -0.000000 0.000000 -6.121253 -1.284593 -8.377429 -1.214336 -0.190060 20.064173 4.005132 -5.868569 -11.416522 0.000000 -0.000000 0.000000 0.969960 1.963606 5.619395 -0.398225 0.619274 -0.042315 -3.039769 0.313542 2.430266 -7.462340 0.233935 -6.792849 -7.949062 -6.304050 4.445043 -22.249580 11.325324 -1.232648 -59.463692 -7.615472 10.906804 14.852038 -33.026576 2.895874 4.384892 -9.557264 -16.848195 27.689043 -2.427381 -1.990709 61.042035 5.541640 18.729663 -18.643754 25.807579 -8.686821 -2.998995 6.073041 -11.793102 
0.351995 0.629030 0.992399 -95.575482 3.063551 89.793850 -1.116329 -1.994594 -0.808080 -3.412023 -4.403233 6.940943 4.903982 8.197067 -11.619348 0.000000 -0.000000 0.000000 -5.776812 -1.674557 -8.244265 -1.174213 0.032961 20.253729 3.962406 -5.482751 -11.802399 0.000000 -0.000000 0.000000 1.523377 1.565311 4.960444 -0.450725 1.007210 0.475088 -3.271404 0.524298 2.817389 -7.074325 0.366788 -5.614632 -8.025184 -6.222119 5.156867 -21.926296 11.614790 -1.454728 -59.915213 -7.965486 11.099144 14.448441 -35.010203 3.710023 5.863245 -9.262250 -18.211239 27.472239 -3.014319 -2.023753 61.111761 6.162793 18.745853 -17.721148 26.929344 -7.002792 -4.945811 5.462565 -10.517943 
0.350275 0.628861 0.991128 -95.732506 3.107410 89.886227 -1.061506 -1.841608 -0.634213 -3.373360 -4.405462 6.622874 5.107237 8.061607 -11.372285 0.000000 -0.000000 0.000000 -5.689732 -1.706448 -8.260097 -1.289749 0.026038 20.261482 3.664197 -5.412672 -11.865649 0.000000 -0.000000 0.000000 1.711790 1.152376 3.665900 -0.547562 1.039201 0.969083 -3.616941 0.982388 3.207637 -6.774776 0.881234 -4.203601 -7.732493 -5.954638 5.909589 -21.261038 11.736294 -1.395756 -60.586211 -8.051977 11.689547 15.063072 -36.810589 3.792105 7.262699 -9.167471 -19.454850 27.276648 -2.389982 -1.316096 61.874014 6.430852 19.215101 -18.060471 26.669399 -6.546868 -6.736267 6.827068 -10.555986 
0.349353 0.629453 0.989765 -96.130756 3.013277 90.084444 -0.988033 -1.952756 -0.665588 -3.606330 -4.176882 6.278642 5.652475 8.126326 -11.489294 0.000000 -0.000000 0.000000 -5.793609 -1.261118 -8.580050 -1.378064 -0.306663 20.503576 3.671026 -5.188959 -11.753653 0.000000 -0.000000 0.000000 1.600807 0.818770 2.088861 -0.518605 0.925325 2.001076 -4.031324 1.781317 3.833205 -6.243476 1.359789 -4.375097 -7.728568 -6.054986 6.594882 -21.027438 11.824024 -1.633195 -60.770434 -8.599886 11.958275 15.797422 -38.470858 3.599698 7.634749 -9.904519 -19.809896 27.180755 -2.225193 -0.847006 62.610159 7.255853 19.337250 -18.819319 26.980045 -6.420090 -6.004034 7.218284 -11.616219 
0.349081 0.629365 0.989612 -96.051261 3.080680 90.123141 -0.900994 -1.942830 -0.813936 -3.608715 -3.991056 6.597330 5.212577 8.043238 -11.711528 0.000000 -0.000000 0.000000 -5.649405 -1.154220 -8.581920 -1.489577 -0.268767 20.494584 3.776497 -5.380287 -12.041996 0.000000 -0.000000 0.000000 1.588074 0.984543 2.231036 -0.434643 1.219779 1.777779 -3.866687 1.188161 3.796068 -6.380402 1.381670 -4.680251 -7.770770 -5.891229 6.604817 -21.340687 12.158891 -1.896344 -60.647508 -8.442032 12.057431 15.830846 -40.695464 3.688750 6.449352 -9.453386 -20.707659 27.031648 -2.643167 -0.957845 62.780013 7.267543 19.466188 -19.351844 28.165831 -7.047808 -5.158668 6.320875 -11.613853 
0.349122 0.629122 0.989878 -96.092028 3.110616 90.030259 -0.936310 -2.099424 -0.653167 -3.539419 -3.913483 6.546734 5.071255 8.032189 -11.765413 0.000000 -0.000000 0.000000 -5.648682 -1.069902 -8.561197 -1.483001 -0.314655 20.615638 3.924014 -5.304767 -12.003687 0.000000 -0.000000 0.000000 1.463222 1.105290 2.930387 -0.458509 1.422096 1.157059 -3.575802 0.862229 3.505219 -6.548095 1.092852 -4.805119 -7.638818 -5.706153 5.584777 -21.505763 12.231858 -1.876435 -60.482003 -8.304844 12.370744 15.768812 -42.297581 3.802920 7.714776 -9.901154 -20.856030 26.867619 -3.022896 -0.989595 62.475586 6.817640 19.643809 -18.670062 29.568826 -6.145631 -6.246344 6.712129 -11.552248 
0.349072 0.628905 0.989682 -96.383863 2.957097 90.049894 -1.121958 -2.219420 -0.415287 -3.550449 -3.888764 6.004248 5.666217 8.138335 -11.580235 0.000000 -0.000000 0.000000 -5.872716 -1.102318 -8.647919 -1.481944 -0.383195 20.609625 3.844628 -4.956291 -12.088472 0.000000 -0.000000 0.000000 1.565483 0.796491 1.952021 -0.619147 0.824331 2.381017 -4.170198 1.698716 3.890659 -6.105815 1.754624 -7.016607 -7.299429 -6.245674 4.542281 -20.906428 11.669755 -1.840599 -60.675822 -8.547329 12.697756 16.792259 -43.630766 3.008526 7.559418 -9.695940 -21.428364 27.416252 -2.370378 -0.951658 62.656318 7.248951 19.666610 -19.367816 30.169127 -6.382040 -5.882283 6.907234 -11.802512 
0.348800 0.628671 0.990731 -96.327968 3.045839 90.518599 -1.108204 -2.164230 -0.957525 -3.456226 -3.831666 6.277146 5.164789 8.137677 -11.471359 0.000000 -0.000000 0.000000 -5.727755 -1.080033 -8.969336 -1.528186 -0.283504 20.250059 4.074152 -5.232841 -11.921497 0.000000 -0.000000 0.000000 1.759872 0.734290 3.255282 -0.731084 0.916744 -0.016480 -3.977183 1.192932 3.184754 -6.472845 1.698868 -7.503114 -7.186490 -5.598329 4.282993 -21.065712 12.304437 -1.534293 -60.166865 -7.744854 12.234257 15.913044 -44.817146 4.070772 7.999407 -10.635772 -21.307641 27.154972 -2.848088 -0.557841 62.794544 6.684402 19.639059 -18.760992 30.376269 -5.589107 -6.265927 7.094155 -10.948031 
0.346992 0.626004 0.991676 -95.979743 3.311306 90.096591 -1.316129 -2.263942 -0.193045 -2.952005 -4.206857 5.826808 5.508789 8.164273 -11.528126 0.000000 -0.000000 0.000000 -5.764741 -1.713027 -8.078741 -1.273580 -0.172733 19.729240 3.989577 -4.885247 -11.505140 0.000000 -0.000000 0.000000 2.493395 0.366499 3.835164 -0.794586 0.938088 0.396690 -3.898965 1.094142 2.204865 -6.704148 0.818080 -8.302357 -7.193691 -5.491680 2.959838 -21.614345 11.802582 -1.348258 -59.996799 -7.451712 12.374293 16.348860 -45.569554 3.321392 7.409673 -10.015819 -20.735786 26.867571 -2.273438 -0.356838 62.645326 5.960449 19.577222 -19.356559 30.651318 -7.143655 -6.416698 6.582839 -10.376385 
0.348836 0.627343 0.991601 -96.040739 3.563686 90.339627 -0.699005 -2.400465 -0.731836 -3.274739 -3.455949 6.200341 5.176660 7.766405 -11.579510 0.000000 -0.000000 0.000000 -5.339659 -1.561259 -8.441449 -1.427013 -0.294155 19.733627 4.104439 -4.972886 -11.608358 0.000000 -0.000000 0.000000 2.103549 0.973111 3.898147 -0.434711 1.091121 0.284731 -3.411144 0.835020 2.630542 -6.525402 1.224975 -10.624449 -7.408162 -5.445147 3.359631 -21.580402 11.320820 -1.644258 -60.538998 -8.184287 12.562194 16.263122 -45.338090 3.542992 7.360399 -10.684433 -20.968511 27.062214 -2.487131 -1.457295 62.324031 5.874801 19.599917 -19.264997 30.282562 -6.794450 -6.060308 7.007305 -10.839270 
0.348628 0.627082 0.992920 -95.982335 3.158356 90.096500 -1.332878 -2.602685 -0.184973 -3.041837 -3.367533 5.798388 5.265799 7.885340 -11.083174 0.000000 -0.000000 0.000000 -5.905444 -1.533717 -8.085565 -1.356739 -0.309079 19.678634 4.136327 -5.197353 -11.524606 0.000000 -0.000000 0.000000 1.605438 1.156983 4.641790 -0.320220 0.760357 0.110892 -3.197542 0.470533 1.760402 -6.750639 1.342574 -10.630732 -7.464329 -5.082281 2.963907 -22.492746 11.449866 -1.418364 -59.253548 -8.130614 13.032575 16.686965 -46.022069 2.410692 7.378239 -10.684458 -20.599089 27.538030 -2.388818 -1.514175 61.655839 5.747438 20.239236 -19.140765 29.532208 -7.617653 -6.531930 7.018532 -10.371081 
